<svg width="128" height="42" viewBox="0 0 128 42" fill="none" xmlns="http://www.w3.org/2000/svg">
<g clip-path="url(#clip0_75_9786)">
<path d="M127.57 30.9374H116.634L103.852 15.4623L116.634 0H127.57L114.788 15.4118L127.57 30.9374Z" fill="#106073"/>
<path d="M95.2295 0H103.852V30.9374H95.2295V0Z" fill="#106073"/>
<path d="M83.2563 0V16.183L70.664 0H62.6738V30.9374H71.1571H71.2837V14.1349L84.369 30.9374H91.8792V0H83.2563Z" fill="#106073"/>
<path d="M50.2581 0L42.7356 11.9729L35.2004 0H26.1479V30.9374H34.5429H34.7578V13.5912L42.7356 25.2859L50.7006 13.5912V30.9374H50.7892H59.3232V0H50.2581Z" fill="#106073"/>
<path d="M0.344238 30.9374H11.2804L24.0625 15.4623L11.2804 0H0.344238L13.1389 15.4118L0.344238 30.9374Z" fill="#0A9BA5"/>
<path d="M18.5754 8.8125L0.344238 30.9377H11.2804L24.0625 15.4627L18.5754 8.8125Z" fill="#49BFB5"/>
<path d="M11.7861 13.7812L13.1389 15.4121L18.5754 8.8125L11.7861 13.7812Z" fill="#106073"/>
<path d="M26.0217 38.258V38.2327C26.0217 36.1592 27.64 34.4651 29.8398 34.4651C32.0397 34.4651 31.9386 34.8191 32.6971 35.4639L31.6857 36.6776C31.1294 36.2098 30.6237 35.9443 29.7766 35.9443C28.9296 35.9443 27.6905 36.9684 27.6905 38.2074V38.2327C27.6905 39.5602 28.6008 40.5464 29.8904 40.5464C31.18 40.5464 30.9903 40.3946 31.3949 40.1039V39.0672H29.7766V37.6891H32.9373V40.8498C32.1914 41.482 31.1547 42.0003 29.8272 42.0003C27.5641 42.0003 25.9963 40.4073 25.9963 38.258H26.0217Z" fill="#106073"/>
<path d="M34.5054 34.5898H37.8305C38.7534 34.5898 39.4741 34.8553 39.9545 35.3232C40.4349 35.791 40.574 36.2967 40.574 36.992V37.0173C40.574 38.1931 39.9419 38.9264 39.0189 39.2804L40.8016 41.8849H38.9304L37.3753 39.5586H36.1111V41.8849H34.5054V34.6025V34.5898ZM37.7294 38.1299C38.5132 38.1299 38.9558 37.7127 38.9558 37.1058V37.0805C38.9558 36.3978 38.4753 36.0438 37.6914 36.0438H36.0984V38.1299H37.7167H37.7294Z" fill="#106073"/>
<path d="M41.699 38.2579V38.2327C41.699 36.1592 43.3299 34.4651 45.5804 34.4651C47.8308 34.4651 49.4365 36.1466 49.4365 38.2074V38.2327C49.4365 40.3061 47.8055 42.0003 45.5551 42.0003C43.3046 42.0003 41.699 40.3188 41.699 38.2579ZM47.7676 38.2579V38.2327C47.7676 36.981 46.8573 35.9443 45.5677 35.9443C44.2781 35.9443 43.3805 36.9684 43.3805 38.2074V38.2327C43.3805 39.4843 44.2908 40.521 45.5804 40.521C46.8699 40.521 47.7676 39.497 47.7676 38.2579Z" fill="#106073"/>
<path d="M50.752 38.7494V34.5898H52.3576V38.7115C52.3576 39.8999 52.9518 40.5068 53.9253 40.5068C54.8988 40.5068 55.4931 39.9125 55.4931 38.7621V34.5898H57.0987V38.6989C57.0987 40.8987 55.8597 41.986 53.9001 41.986C51.9404 41.986 50.752 40.8987 50.752 38.7494Z" fill="#106073"/>
<path d="M58.7295 34.5898H61.7006C63.4327 34.5898 64.4947 35.6139 64.4947 37.1058V37.1311C64.4947 38.8127 63.1799 39.685 61.5489 39.685H60.3352V41.8723H58.7295V34.5898ZM61.5994 38.269C62.396 38.269 62.8638 37.7886 62.8638 37.169V37.1438C62.8638 36.4231 62.358 36.0438 61.5615 36.0438H60.3225V38.269H61.5868H61.5994Z" fill="#106073"/>
</g>
<defs>
<clipPath id="clip0_75_9786">
<rect width="127.938" height="42" fill="white"/>
</clipPath>
</defs>
</svg>
